PathFileType	4	(X/Y/Z)	C:\Users\86182\Documents\cortex\Trimmed_M1_H1.trc
DataRate	CameraRate	NumFrames	NumMarkers	Units	OrigDataRate	OrigDataStartFrame	OrigNumFrames
100.00	100.00	       98	2	mm	100.00	541	       901
Frame#	Time	gripper			box			
		X1	Y1	Z1	X2	Y2	Z2	

541	5.400	199.61676	195.51768	292.96088	200.36374	194.86522	151.53949	
542	5.410	199.61934	195.51776	292.95999	200.37015	194.87206	151.52415	
543	5.420	199.62131	195.51782	292.95932	200.37466	194.87601	151.51563	
544	5.430	199.62241	195.51779	292.95905	200.37703	194.87766	151.51251	
545	5.440	199.62250	195.51759	292.95935	200.37738	194.87767	151.51320	
546	5.450	199.62167	195.51723	292.96021	200.37636	194.87674	151.51605	
547	5.460	199.62021	195.51672	292.96149	200.37474	194.87550	151.51944	
548	5.470	199.61842	195.51620	292.96286	200.37317	194.87447	151.52209	
549	5.480	199.61638	195.51588	292.96399	200.37198	194.87392	151.52322	
550	5.490	199.61417	195.51588	292.96463	200.37140	194.87398	151.52264	
551	5.500	199.61186	195.51628	292.96463	200.37154	194.87460	151.52048	
552	5.510	199.60963	195.51701	292.96405	200.37242	194.87561	151.51724	
553	5.520	199.60767	195.51797	292.96301	200.37381	194.87675	151.51370	
554	5.530	199.60632	195.51895	292.96179	200.37514	194.87778	151.51057	
555	5.540	199.60594	195.51968	292.96069	200.37581	194.87848	151.50845	
556	5.550	199.60667	195.52000	292.95990	200.37560	194.87874	151.50763	
557	5.560	199.60840	195.51987	292.95966	200.37498	194.87866	151.50778	
558	5.570	199.61072	195.51935	292.95984	200.37480	194.87849	151.50830	
559	5.580	199.61319	195.51860	292.96036	200.37561	194.87843	151.50851	
560	5.590	199.61554	195.51778	292.96106	200.37749	194.87860	151.50812	
561	5.600	199.61737	195.51697	292.96185	200.38005	194.87903	151.50699	
562	5.610	199.61824	195.51636	292.96265	200.38266	194.87967	151.50525	
563	5.620	199.61792	195.51602	292.96329	200.38467	194.88039	151.50327	
564	5.630	199.61668	195.51599	292.96368	200.38588	194.88104	151.50146	
565	5.640	199.61502	195.51620	292.96381	200.38666	194.88164	151.49997	
566	5.650	199.61339	195.51656	292.96371	200.38756	194.88223	151.49863	
567	5.660	199.61211	195.51691	292.96350	200.38879	194.88283	151.49738	
568	5.670	199.61127	195.51720	292.96326	200.39021	194.88339	151.49628	
569	5.680	199.61081	195.51744	292.96301	200.39154	194.88387	151.49539	
570	5.690	199.61046	195.51768	292.96268	200.39256	194.88419	151.49454	
571	5.700	199.60992	195.51802	292.96228	200.39325	194.88437	151.49344	
572	5.710	199.60910	195.51846	292.96179	200.39346	194.88437	151.49164	
573	5.720	199.60812	195.51900	292.96118	200.39291	194.88411	151.48889	
574	5.730	199.60718	195.51952	292.96060	200.39120	194.88348	151.48492	
575	5.740	199.60641	195.51991	292.96017	200.38814	194.88243	151.47971	
576	5.750	199.60602	195.52010	292.95999	200.38382	194.88100	151.47333	
577	5.760	199.60619	195.51997	292.96014	200.37874	194.87933	151.46635	
578	5.770	199.60710	195.51950	292.96066	200.37364	194.87767	151.45963	
579	5.780	199.60873	195.51869	292.96155	200.36919	194.87624	151.45392	
580	5.790	199.61086	195.51767	292.96262	200.36577	194.87514	151.44962	
581	5.800	199.61301	195.51663	292.96375	200.36340	194.87440	151.44672	
582	5.810	199.61473	195.51578	292.96463	200.36194	194.87399	151.44501	
583	5.820	199.61572	195.51535	292.96506	200.36111	194.87383	151.44412	
584	5.830	199.61592	195.51544	292.96484	200.36067	194.87383	151.44379	
585	5.840	199.61543	195.51607	292.96396	200.36041	194.87395	151.44373	
586	5.850	199.61444	195.51712	292.96249	200.36021	194.87411	151.44379	
587	5.860	199.61307	195.51843	292.96069	200.36000	194.87430	151.44388	
588	5.870	199.61142	195.51979	292.95892	200.35988	194.87442	151.44400	
589	5.880	199.60957	195.52098	292.95746	200.35997	194.87445	151.44429	
590	5.890	199.60762	195.52184	292.95660	200.36041	194.87431	151.44484	
591	5.900	199.60570	195.52213	292.95670	200.36124	194.87402	151.44571	
592	5.910	199.60405	195.52177	292.95776	200.36234	194.87357	151.44690	
593	5.920	199.60306	195.52087	292.95953	200.36360	194.87300	151.44839	
594	5.930	199.60312	195.51965	292.96155	200.36491	194.87239	151.45004	
595	5.940	199.60434	195.51837	292.96332	200.36604	194.87184	151.45157	
596	5.950	199.60649	195.51729	292.96448	200.36665	194.87158	151.45248	
597	5.960	199.60916	195.51660	292.96484	200.36623	194.87193	151.45200	
598	5.970	199.61198	195.51645	292.96429	200.36400	194.87332	151.44897	
599	5.980	199.61476	195.51683	292.96286	200.35907	194.87627	151.44199	
600	5.990	199.61729	195.51767	292.96075	200.35054	194.88130	151.42960	
601	6.000	199.61931	195.51877	292.95831	200.33771	194.88876	151.41066	
602	6.010	199.62061	195.51987	292.95612	200.32065	194.89861	151.38498	
603	6.020	199.62109	195.52065	292.95468	200.30054	194.91029	151.35391	
604	6.030	199.62088	195.52089	292.95435	200.27972	194.92302	151.32010	
605	6.040	199.62024	195.52054	292.95511	200.26093	194.93597	151.28653	
606	6.050	199.61935	195.51965	292.95685	200.24608	194.94846	151.25522	
607	6.060	199.61819	195.51849	292.95911	200.23579	194.95978	151.22745	
608	6.070	199.61667	195.51733	292.96149	200.22943	194.96912	151.20419	
609	6.080	199.61475	195.51651	292.96341	200.22575	194.97581	151.18600	
610	6.090	199.61249	195.51622	292.96457	200.22374	194.97987	151.17267	
611	6.100	199.61015	195.51651	292.96475	200.22281	194.98207	151.16318	
612	6.110	199.60815	195.51730	292.96399	200.22272	194.98335	151.15645	
613	6.120	199.60698	195.51843	292.96246	200.22318	194.98445	151.15155	
614	6.130	199.60692	195.51970	292.96039	200.22392	194.98569	151.14793	
615	6.140	199.60799	195.52083	292.95819	200.22475	194.98697	151.14536	
616	6.150	199.61003	195.52158	292.95633	200.22560	194.98816	151.14377	
617	6.160	199.61276	195.52170	292.95535	200.22661	194.98924	151.14313	
618	6.170	199.61583	195.52107	292.95551	200.22783	194.99023	151.14322	
619	6.180	199.61880	195.51985	292.95667	200.22920	194.99117	151.14383	
620	6.190	199.62117	195.51837	292.95844	200.23053	194.99196	151.14465	
621	6.200	199.62247	195.51700	292.96036	200.23163	194.99252	151.14545	
622	6.210	199.62241	195.51598	292.96207	200.23238	194.99283	151.14607	
623	6.220	199.62097	195.51541	292.96341	200.23271	194.99297	151.14642	
624	6.230	199.61839	195.51529	292.96436	200.23267	194.99297	151.14655	
625	6.240	199.61526	195.51550	292.96490	200.23228	194.99292	151.14645	
626	6.250	199.61229	195.51591	292.96509	200.23172	194.99286	151.14633	
627	6.260	199.61005	195.51639	292.96497	200.23105	194.99281	151.14630	
628	6.270	199.60870	195.51688	292.96454	200.23022	194.99271	151.14636	
629	6.280	199.60805	195.51743	292.96384	200.22896	194.99232	151.14642	
630	6.290	199.60767	195.51805	292.96289	200.22679	194.99133	151.14618	
631	6.300	199.60715	195.51872	292.96191	200.22319	194.98933	151.14517	
632	6.310	199.60631	195.51935	292.96112	200.21783	194.98599	151.14297	
633	6.320	199.60530	195.51981	292.96066	200.21082	194.98120	151.13911	
634	6.330	199.60443	195.51999	292.96060	200.20287	194.97523	151.13330	
635	6.340	199.60397	195.51987	292.96094	200.19527	194.96867	151.12529	
636	6.350	199.60416	195.51944	292.96161	200.18935	194.96207	151.11481	
637	6.360	199.60515	195.51877	292.96240	200.18604	194.95575	151.10150	
638	6.370	199.60699	195.51796	292.96326	200.18590	194.94986	151.08517	
